<svg xmlns="http://www.w3.org/2000/svg" width="201" height="201" viewBox="0 0 201 201" fill="none">
  <path d="M66.8029 4.13824H181.033C189.775 4.13824 196.862 11.2233 196.862 19.9634V35.4706H82.4727L66.8029 4.13824Z" fill="#D8504F"/>
  <path d="M82.7215 35.5781L67.0048 4.13824H20.0847C11.2779 4.13824 4.13824 11.2794 4.13824 20.0881V142.474H197.453V35.5781H82.7215Z" fill="white"/>
  <path d="M77.194 167.488V165.529H124.397V167.488C124.397 175.058 130.561 181.196 138.165 181.196V181.196C145.768 181.196 151.932 187.333 151.932 194.903V196.862H49.6588V194.903C49.6588 187.333 55.8228 181.196 63.4264 181.196V181.196C71.0301 181.196 77.194 175.058 77.194 167.488Z" fill="#F4DCD5"/>
  <path d="M197.453 141.882H4.13824V149.765C4.13824 158.471 11.175 165.529 19.8549 165.529H181.736C190.416 165.529 197.453 158.471 197.453 149.765V141.882Z" fill="#69D8A6"/>
  <path d="M44.4034 98.8414C44.4034 98.3353 44.5404 97.8293 44.8156 97.3233L58.7717 70.1082C59.399 68.7856 60.4794 68.1229 62.0105 68.1229C62.7952 68.1229 63.6299 68.4083 64.5132 68.9764C65.3965 69.546 65.8381 70.2428 65.8381 71.0673C65.8381 71.3421 65.7396 71.6761 65.5437 72.0679L54.2374 94.6808H61.1272V88.2013C61.1272 87.3785 61.4997 86.7515 62.246 86.3189C62.9911 85.8871 63.8949 85.6712 64.9548 85.6712C66.0148 85.6712 66.9173 85.8875 67.6636 86.3189C68.4087 86.7515 68.7825 87.3785 68.7825 88.2013V94.6808H71.5501C72.2952 94.6808 72.8841 95.0141 73.3167 95.6803C73.7482 96.3462 73.9645 97.1411 73.9645 98.0649C73.9645 98.916 73.7191 99.6835 73.2284 100.368C72.7373 101.052 72.1779 101.394 71.5501 101.394H68.7825V108.648C68.7825 109.427 68.4087 110.042 67.6636 110.493C66.9173 110.943 66.0148 111.169 64.9548 111.169C63.9333 111.169 63.041 110.944 62.2755 110.493C61.5099 110.042 61.1272 109.427 61.1272 108.648V101.394H46.9944C46.2481 101.394 45.6298 101.163 45.1394 100.7C44.6483 100.238 44.4034 99.6183 44.4034 98.8414Z" fill="#1C1F9D"/>
  <path fill-rule="evenodd" clip-rule="evenodd" d="M82.9742 81.608V98.0374C82.9742 102.71 84.2202 106.125 86.7135 108.284C89.2059 110.444 92.5523 111.522 96.7536 111.522C100.954 111.522 104.311 110.444 106.823 108.284C109.335 106.125 110.592 102.71 110.592 98.0374V81.608C110.592 76.9363 109.335 73.5209 106.823 71.3617C104.311 69.2029 100.954 68.1229 96.7536 68.1229C92.5523 68.1229 89.2059 69.2029 86.7135 71.3617C84.2202 73.5209 82.9742 76.9367 82.9742 81.608ZM96.7536 104.809C92.6704 104.809 90.6294 102.552 90.6294 98.0374V81.608C90.6294 77.0941 92.6704 74.836 96.7536 74.836C100.876 74.836 102.937 77.0941 102.937 81.608V98.0374C102.937 102.552 100.876 104.809 96.7536 104.809Z" fill="#1C1F9D"/>
  <path d="M119.425 98.8414C119.425 98.3353 119.562 97.8293 119.837 97.3233L133.793 70.1082C134.421 68.7856 135.501 68.1229 137.032 68.1229C137.817 68.1229 138.652 68.4083 139.535 68.9764C140.418 69.546 140.86 70.2428 140.86 71.0673C140.86 71.3421 140.761 71.6761 140.565 72.0679L129.259 94.6808H136.149V88.2013C136.149 87.3785 136.521 86.7515 137.268 86.3189C138.013 85.8871 138.916 85.6712 139.976 85.6712C141.036 85.6712 141.939 85.8875 142.685 86.3189C143.43 86.7515 143.804 87.3785 143.804 88.2013V94.6808H146.571C147.317 94.6808 147.905 95.0141 148.338 95.6803C148.77 96.3462 148.986 97.1411 148.986 98.0649C148.986 98.916 148.74 99.6835 148.25 100.368C147.758 101.052 147.199 101.394 146.571 101.394H143.804V108.648C143.804 109.427 143.43 110.042 142.685 110.493C141.939 110.943 141.036 111.169 139.976 111.169C138.955 111.169 138.063 110.944 137.297 110.493C136.532 110.042 136.149 109.427 136.149 108.648V101.394H122.016C121.27 101.394 120.651 101.163 120.161 100.7C119.67 100.238 119.425 99.6183 119.425 98.8414Z" fill="#1C1F9D"/>
  <path fill-rule="evenodd" clip-rule="evenodd" d="M66.7383 0H181.212C192.123 0 201 8.87698 201 19.7883V149.965C201 160.788 192.194 169.594 181.371 169.594H128.178C129.09 174.068 133.055 177.445 137.795 177.445C147.536 177.445 155.461 185.37 155.461 195.111V197.074C155.461 199.242 153.703 201 151.535 201H49.4648C47.2966 201 45.5391 199.242 45.5391 197.074V195.111C45.5391 185.37 53.464 177.445 63.2051 177.445C67.9447 177.445 71.9101 174.068 72.8221 169.594H19.6289C8.80553 169.594 0 160.788 0 149.965V19.8586C0 8.90838 8.90838 0 19.8586 0H66.7383ZM193.148 39.2578H7.85157V138.187H193.148V39.2578ZM181.212 7.85157C187.793 7.85157 193.148 13.2067 193.148 19.7883V31.4063H84.8676L73.0902 7.85157H181.212ZM64.3121 7.85157H19.8586C13.2381 7.85157 7.85157 13.2381 7.85157 19.8586V31.4063H76.0895L72.1637 23.5547H35.332C33.1689 23.5547 31.4063 21.792 31.4063 19.6289C31.4063 17.4658 33.1689 15.7031 35.332 15.7031H68.2379L64.3121 7.85157ZM123.118 177.445H108.94C106.777 177.445 105.015 179.208 105.015 181.371C105.015 183.534 106.777 185.297 108.94 185.297H137.795C142.535 185.297 146.5 188.675 147.412 193.148H53.5877C54.4997 188.675 58.4655 185.297 63.2051 185.297C72.2827 185.297 79.7833 178.415 80.7628 169.594H120.237C120.558 172.476 121.578 175.149 123.118 177.445ZM181.371 161.742C187.865 161.742 193.148 156.459 193.148 149.965V146.039H7.85157V149.965C7.85157 156.459 13.1349 161.742 19.6289 161.742H76.9453H124.055H181.371Z" fill="#1C1F9D"/>
  <path d="M181.371 23.5547C183.538 23.5547 185.297 21.7959 185.297 19.6289C185.297 17.4615 183.538 15.7031 181.371 15.7031C179.204 15.7031 177.445 17.4615 177.445 19.6289C177.445 21.7959 179.204 23.5547 181.371 23.5547Z" fill="#1C1F9D"/>
  <path d="M165.668 23.5547C167.835 23.5547 169.594 21.7959 169.594 19.6289C169.594 17.4615 167.835 15.7031 165.668 15.7031C163.501 15.7031 161.742 17.4615 161.742 19.6289C161.742 21.7959 163.501 23.5547 165.668 23.5547Z" fill="#1C1F9D"/>
  <path d="M149.965 23.5547C152.132 23.5547 153.891 21.7959 153.891 19.6289C153.891 17.4615 152.132 15.7031 149.965 15.7031C147.797 15.7031 146.039 17.4615 146.039 19.6289C146.039 21.7959 147.797 23.5547 149.965 23.5547Z" fill="#1C1F9D"/>
  <path d="M93.2373 185.297C95.4004 185.297 97.1631 183.534 97.1631 181.371C97.1631 179.208 95.4004 177.445 93.2373 177.445C91.0742 177.445 89.3115 179.208 89.3115 181.371C89.3115 183.534 91.0742 185.297 93.2373 185.297Z" fill="#1C1F9D"/>
  <path d="M19.6289 23.5547C21.792 23.5547 23.5547 21.792 23.5547 19.6289C23.5547 17.4658 21.792 15.7031 19.6289 15.7031C17.4658 15.7031 15.7031 17.4658 15.7031 19.6289C15.7031 21.792 17.4658 23.5547 19.6289 23.5547Z" fill="#1C1F9D"/>
</svg>