<svg width="17" height="17" viewBox="0 0 17 17" fill="none" xmlns="http://www.w3.org/2000/svg">
<path id="Vector" fill-rule="evenodd" clip-rule="evenodd" d="M1.22536 12.9352L0.0428057 16.0887C-0.00260385 16.2101 -0.0121224 16.3419 0.0153873 16.4686C0.0428969 16.5952 0.106272 16.7112 0.197943 16.8028C0.289615 16.8944 0.405708 16.9576 0.532358 16.985C0.659009 17.0124 0.790863 17.0027 0.912174 16.9572L4.06476 15.7746C4.4256 15.6395 4.75333 15.4287 5.02593 15.1564L14.1579 6.02439C14.1579 6.02439 13.8393 5.06952 12.8853 4.11466C11.9314 3.16069 10.9756 2.8421 10.9756 2.8421L1.84364 11.9741C1.57132 12.2467 1.36051 12.5744 1.22536 12.9352ZM12.2491 1.56865L13.4937 0.323993C13.7169 0.100801 14.0148 -0.0413941 14.3262 0.0108041C14.7645 0.0828015 15.435 0.300594 16.0667 0.933271C16.6994 1.56595 16.9172 2.23552 16.9892 2.67381C17.0414 2.9852 16.8992 3.28309 16.676 3.50628L15.4305 4.75093C15.4305 4.75093 15.1128 3.79697 14.1579 2.843C13.2039 1.88724 12.2491 1.56865 12.2491 1.56865Z" fill="#EDF1D6"/>
</svg>
