<svg xmlns="http://www.w3.org/2000/svg" width="22" height="22" viewBox="0 0 22 22" fill="none">
  <path d="M1.10736 5.8271C0.44437 9.001 2.94351 12.7792 6.08217 15.9178C9.22089 19.0565 12.999 21.5557 16.1729 20.8927C18.7832 20.3474 20.1157 18.957 20.8657 17.7722C21.1245 17.3634 20.9939 16.8327 20.606 16.5435L16.9332 13.8038C16.5372 13.5085 15.9843 13.5485 15.635 13.8979L13.6855 15.8473C13.6855 15.8473 11.7906 15.2313 9.27958 12.7204C6.7687 10.2095 6.15274 8.31453 6.15274 8.31453L8.10221 6.36506C8.45158 6.01569 8.4916 5.46286 8.19618 5.06682L5.45658 1.39399C5.16729 1.00617 4.63664 0.875548 4.22782 1.13432C3.04302 1.88428 1.65261 3.21685 1.10736 5.8271Z" stroke="#EDF1D6" stroke-linecap="round" stroke-linejoin="round"/>
</svg>