<svg width="15" height="15" viewBox="0 0 15 15" fill="none" xmlns="http://www.w3.org/2000/svg">
<g id="Group 6">
<path id="Vector" d="M0.306122 2.27753C0.134694 2.27753 0 2.14283 0 1.97141C0 1.79998 0.134694 1.66528 0.306122 1.66528L14.6939 1.68977C14.8653 1.68977 15 1.82447 15 1.9959C15 2.16732 14.8653 2.30202 14.6939 2.30202L0.306122 2.27753ZM2.66939 2.90202C2.66939 2.73059 2.80408 2.5959 2.97551 2.5959C3.14694 2.5959 3.28163 2.73059 3.28163 2.90202V13.4449L12.2449 13.3469V3.01222C12.2449 2.84079 12.3796 2.7061 12.551 2.7061C12.7224 2.7061 12.8571 2.84079 12.8571 3.01222V13.9837L2.65714 14.0939V2.90202H2.66939Z" fill="black"/>
<path id="Vector_2" d="M10.2612 11.8531C10.0898 11.8531 9.95508 11.7184 9.95508 11.5469V4.27347C9.95508 4.10204 10.0898 3.96735 10.2612 3.96735C10.4326 3.96735 10.5673 4.10204 10.5673 4.27347V11.5469C10.5796 11.7184 10.4326 11.8531 10.2612 11.8531ZM5.43671 11.8531C5.26529 11.8531 5.13059 11.7184 5.13059 11.5469V4.27347C5.13059 4.10204 5.26529 3.96735 5.43671 3.96735C5.60814 3.96735 5.74284 4.10204 5.74284 4.27347V11.5469C5.75508 11.7184 5.60814 11.8531 5.43671 11.8531ZM7.84896 11.8531C7.67753 11.8531 7.54284 11.7184 7.54284 11.5469V4.27347C7.54284 4.10204 7.67753 3.96735 7.84896 3.96735C8.02039 3.96735 8.15508 4.10204 8.15508 4.27347V11.5469C8.16733 11.7184 8.02039 11.8531 7.84896 11.8531ZM9.84488 1.84898V1.10204C9.84488 0.832653 9.62447 0.612245 9.35508 0.612245H6.22039C5.93876 0.612245 5.73059 0.832653 5.73059 1.11429V1.76327H5.11835V1.11429C5.11835 0.502041 5.62039 0 6.23263 0H9.36733C9.97957 0 10.4816 0.502041 10.4816 1.11429V1.86122H9.84488V1.84898Z" fill="black"/>
</g>
</svg>
